<svg xmlns="http://www.w3.org/2000/svg" viewBox="0 0 289.94 91.98"><defs><style>.cls-1{fill:#fff;}.cls-2{fill:#626f8d;}.cls-3{fill:#b1bccc;}</style></defs><title>Logo</title><g id="Layer_2" data-name="Layer 2"><g id="Layer_1-2" data-name="Layer 1"><path class="cls-1" d="M99.81,28.76c2.76,0,8.26.5,8.74,5.68h-4.06c-.12-1.37-1.37-2.87-4.5-2.87-2.51,0-4.16.77-4.16,2.45,0,4.21,13.32.17,13.32,7.81,0,4.61-4.78,5.81-8.59,5.81-6.43,0-9-2.53-9.06-6.28h4c.1,2.35,2.06,3.48,5.14,3.48,2.28,0,4.4-.68,4.4-2.63,0-4.43-13.17-.58-13.17-7.92C91.92,30.31,95.45,28.76,99.81,28.76Z"/><path class="cls-1" d="M113.28,29.26H117V39.35c0,2.48.1,5.49,5,5.49s5-3,5-5.49V29.26h3.76V39.45c0,3-.11,8.19-8.77,8.19s-8.74-5.23-8.74-8.19Z"/><path class="cls-1" d="M136.29,29.26h11.32c4.56,0,6,2.08,6,4.86a4.22,4.22,0,0,1-3,4.31v0c2.13.45,2.6,2.3,2.6,4.83,0,.85,0,2.85.76,3.83H150a6,6,0,0,1-.45-2.7c0-2.56-.35-4.36-3.11-4.36h-6.38v7.06h-3.76Zm10.24,8c2.08,0,3.21-.62,3.21-2.62s-1.23-2.58-3.21-2.58h-6.48v5.2Z"/><path class="cls-1" d="M156.48,29.26h4.2l5.84,14.32,5.71-14.32h4.05l-7.86,17.88h-4Z"/><path class="cls-1" d="M179.71,29.26h15.53v2.81H183.47v4.5h11.29v2.81H183.47v5h12v2.8H179.71Z"/><path class="cls-1" d="M206.08,40.33l-7.81-11.07h4.58l5.11,8,5.1-8h4.59l-7.82,11.07v6.81h-3.75Z"/><path class="cls-1" d="M221.3,29.26h3.76V44.19h10.87v3H221.3Z"/><path class="cls-1" d="M240,29.26h3.75V47.14H240Z"/><path class="cls-1" d="M249.42,29.26h4.31l10.64,13.42h.05V29.26H268V47.14h-4.24L253.08,33.72H253V47.14h-3.61Z"/><path class="cls-1" d="M273.68,29.26h15.53v2.81H277.44v4.5h11.29v2.81H277.44v5h12v2.8H273.68Z"/><path class="cls-1" d="M37.35,92a10.3,10.3,0,0,1-4.17-.88l-27-11.85A10.4,10.4,0,0,1,0,69.76V45.92L0,22.23a10.39,10.39,0,0,1,6.2-9.48L33.17.88a10.42,10.42,0,0,1,8.37,0l27,11.89a10.36,10.36,0,0,1,6.19,9.5V69.74a10.39,10.39,0,0,1-6.2,9.51l-27,11.85A10.35,10.35,0,0,1,37.35,92Zm0-90.06a8.45,8.45,0,0,0-3.41.72L7,14.51a8.45,8.45,0,0,0-5,7.73l0,23.69c0,3.74,0,20.09,0,23.82A8.47,8.47,0,0,0,7,77.49L34,89.34a8.49,8.49,0,0,0,6.81,0l27-11.85a8.47,8.47,0,0,0,5-7.75V22.27a8.46,8.46,0,0,0-5-7.74l-27-11.89A8.38,8.38,0,0,0,37.35,1.92Z"/><polygon class="cls-2" points="37.72 35.03 37.72 57.72 63.55 46.37 37.72 35.03"/><polygon class="cls-1" points="37.72 57.72 37.72 80.5 11.89 69.15 37.72 57.72"/><path class="cls-3" d="M37.67,35,11.89,23.64V46.35h0L37.72,57.72V35ZM22.55,44.34l-6.41-2.69V31.73l6.41,2.77ZM33.12,49,26.71,46.3V36.38l6.41,2.77Z"/><path class="cls-3" d="M37.72,57.72V80.5l4.7-2.06V62.85l6.4-2.78V75.62l14.73-6.47h0V46.37Zm21.67,7.49L53,67.89V58.06l6.4-2.77Z"/><polygon class="cls-1" points="37.72 12.29 37.72 35.03 63.55 23.68 37.72 12.29"/><polygon class="cls-2" points="37.72 12.29 37.72 35.03 11.89 23.68 37.72 12.29"/><path class="cls-1" d="M97.84,58.15a2.66,2.66,0,0,1,.86,1.7h-1a2,2,0,0,0-.65-1.14,2.07,2.07,0,0,0-1.38-.42,2.22,2.22,0,0,0-1.75.77,3.62,3.62,0,0,0-.66,2.38,3.48,3.48,0,0,0,.6,2.12,2.07,2.07,0,0,0,1.79.82,1.89,1.89,0,0,0,1.67-.86,3.36,3.36,0,0,0,.46-1.19h1a3.39,3.39,0,0,1-.86,2,3.38,3.38,0,0,1-4.53.17,4.89,4.89,0,0,1-.29-5.92,3.14,3.14,0,0,1,2.58-1.15A3,3,0,0,1,97.84,58.15Z"/><path class="cls-1" d="M101.93,57.59h.91v2.78a2.61,2.61,0,0,1,.59-.58,2,2,0,0,1,1.1-.29,1.62,1.62,0,0,1,1.6.83,2.71,2.71,0,0,1,.23,1.25v3.49h-.94V61.64a2,2,0,0,0-.15-.88,1,1,0,0,0-.93-.44,1.54,1.54,0,0,0-1,.39,1.87,1.87,0,0,0-.47,1.48v2.88h-.91Z"/><path class="cls-1" d="M112.6,61.78a.53.53,0,0,0,.43-.26.87.87,0,0,0,.06-.36.75.75,0,0,0-.33-.68,1.81,1.81,0,0,0-1-.21,1.21,1.21,0,0,0-1,.39,1.37,1.37,0,0,0-.22.64h-.85a1.63,1.63,0,0,1,.65-1.41,2.7,2.7,0,0,1,1.46-.39,2.89,2.89,0,0,1,1.55.37A1.23,1.23,0,0,1,114,61v3.14a.36.36,0,0,0,.06.22c0,.06.12.09.24.09h.14l.16,0v.68l-.32.07-.31,0a.76.76,0,0,1-.69-.34,1.35,1.35,0,0,1-.15-.5,2.36,2.36,0,0,1-.8.63,2.51,2.51,0,0,1-1.16.27,1.69,1.69,0,0,1-1.23-.46,1.5,1.5,0,0,1-.48-1.14,1.47,1.47,0,0,1,.47-1.18,2.34,2.34,0,0,1,1.24-.51Zm-1.92,2.47a1.08,1.08,0,0,0,.69.23,2.06,2.06,0,0,0,.93-.23,1.24,1.24,0,0,0,.76-1.21v-.73a1.33,1.33,0,0,1-.43.17,3.21,3.21,0,0,1-.52.11l-.55.07a1.88,1.88,0,0,0-.74.21.79.79,0,0,0-.43.76A.75.75,0,0,0,110.68,64.25Z"/><path class="cls-1" d="M117.48,59.63h.86v.94a2.19,2.19,0,0,1,.53-.67,1.34,1.34,0,0,1,1-.39h.08l.21,0v1l-.15,0h-.15a1.29,1.29,0,0,0-1.06.44,1.55,1.55,0,0,0-.37,1v3.13h-.91Z"/><path class="cls-1" d="M123.07,58.11H124v1.52h.87v.75H124v3.55a.38.38,0,0,0,.19.38.8.8,0,0,0,.36,0h.14l.18,0v.73l-.33.07-.37,0a1,1,0,0,1-.87-.33,1.47,1.47,0,0,1-.23-.85v-3.6h-.73v-.75h.73Z"/><path class="cls-1" d="M131.11,59.78a2.08,2.08,0,0,1,.83.71,2.4,2.4,0,0,1,.36,1,6.63,6.63,0,0,1,.08,1.19h-4a2.42,2.42,0,0,0,.39,1.34,1.31,1.31,0,0,0,1.13.5,1.43,1.43,0,0,0,1.13-.48,1.58,1.58,0,0,0,.34-.64h.89a1.84,1.84,0,0,1-.23.67,2.24,2.24,0,0,1-.45.6,2,2,0,0,1-1,.55,2.85,2.85,0,0,1-.74.08,2.22,2.22,0,0,1-1.71-.74,2.86,2.86,0,0,1-.71-2.06,3.13,3.13,0,0,1,.71-2.13,2.32,2.32,0,0,1,1.85-.82A2.45,2.45,0,0,1,131.11,59.78Zm.33,2.14a2.29,2.29,0,0,0-.26-1,1.3,1.3,0,0,0-1.24-.66,1.38,1.38,0,0,0-1.05.45,1.72,1.72,0,0,0-.44,1.16Z"/><path class="cls-1" d="M135.54,59.63h.87v.94a2.12,2.12,0,0,1,.52-.67,1.37,1.37,0,0,1,1-.39H138l.21,0v1l-.15,0h-.15a1.31,1.31,0,0,0-1.07.44,1.6,1.6,0,0,0-.37,1v3.13h-.91Z"/><path class="cls-1" d="M144.31,59.78a2.08,2.08,0,0,1,.83.71,2.4,2.4,0,0,1,.36,1,6.63,6.63,0,0,1,.08,1.19h-4A2.42,2.42,0,0,0,142,64a1.3,1.3,0,0,0,1.12.5,1.44,1.44,0,0,0,1.47-1.12h.9a1.84,1.84,0,0,1-.23.67,2.47,2.47,0,0,1-.45.6,2,2,0,0,1-1,.55,2.85,2.85,0,0,1-.74.08,2.22,2.22,0,0,1-1.71-.74,2.86,2.86,0,0,1-.71-2.06,3.13,3.13,0,0,1,.71-2.13,2.32,2.32,0,0,1,1.85-.82A2.45,2.45,0,0,1,144.31,59.78Zm.33,2.14a2.29,2.29,0,0,0-.26-1,1.31,1.31,0,0,0-1.24-.66,1.38,1.38,0,0,0-1,.45,1.77,1.77,0,0,0-.45,1.16Z"/><path class="cls-1" d="M151.7,59.8a2.4,2.4,0,0,1,.55.53V57.59h.88v7.48h-.82v-.76a1.93,1.93,0,0,1-.75.73,2.16,2.16,0,0,1-1,.22A2,2,0,0,1,149,64.5a3,3,0,0,1-.66-2,3.52,3.52,0,0,1,.6-2.06,2,2,0,0,1,1.73-.87A1.87,1.87,0,0,1,151.7,59.8Zm-2,4.08a1.3,1.3,0,0,0,1.18.59,1.26,1.26,0,0,0,1-.55,2.6,2.6,0,0,0,.41-1.57,2.32,2.32,0,0,0-.42-1.52,1.32,1.32,0,0,0-1-.5,1.37,1.37,0,0,0-1.11.53,2.39,2.39,0,0,0-.43,1.55A2.79,2.79,0,0,0,149.66,63.88Z"/><path class="cls-1" d="M162.12,62.66a2,2,0,0,0,.29,1,1.87,1.87,0,0,0,1.71.75,2.86,2.86,0,0,0,1-.17,1.14,1.14,0,0,0,.88-1.12,1,1,0,0,0-.37-.87,3.53,3.53,0,0,0-1.17-.44l-1-.23a4.71,4.71,0,0,1-1.36-.49,1.59,1.59,0,0,1-.69-1.4,2.19,2.19,0,0,1,.68-1.65,2.66,2.66,0,0,1,1.91-.65A3.23,3.23,0,0,1,166,58a2,2,0,0,1,.8,1.81h-.95a1.91,1.91,0,0,0-.31-.92,1.76,1.76,0,0,0-1.5-.58,1.72,1.72,0,0,0-1.24.37,1.23,1.23,0,0,0-.37.88.87.87,0,0,0,.44.8,6.28,6.28,0,0,0,1.32.4l1,.24a3.07,3.07,0,0,1,1.13.48A1.77,1.77,0,0,1,167,63a1.92,1.92,0,0,1-.88,1.78,3.9,3.9,0,0,1-2,.53,3,3,0,0,1-2.13-.71,2.44,2.44,0,0,1-.75-1.92Z"/><path class="cls-1" d="M171.17,59.63v3.61a1.63,1.63,0,0,0,.12.68.9.9,0,0,0,.89.49,1.26,1.26,0,0,0,1.27-.85,3.58,3.58,0,0,0,.18-1.26V59.63h.91v5.44h-.86v-.8a1.84,1.84,0,0,1-.43.52,1.88,1.88,0,0,1-1.25.43,1.58,1.58,0,0,1-1.55-.78,2.35,2.35,0,0,1-.23-1.11v-3.7Z"/><path class="cls-1" d="M178,59.63h.86v.94a2.36,2.36,0,0,1,.53-.67,1.34,1.34,0,0,1,1-.39h.08l.21,0v1l-.15,0h-.15a1.29,1.29,0,0,0-1.06.44,1.55,1.55,0,0,0-.37,1v3.13H178Z"/><path class="cls-1" d="M183.9,59.63l1.45,4.43,1.52-4.43h1l-2.05,5.44h-1l-2-5.44Z"/><path class="cls-1" d="M194,59.78a2.08,2.08,0,0,1,.83.71,2.4,2.4,0,0,1,.36,1,6.63,6.63,0,0,1,.08,1.19H191.3a2.34,2.34,0,0,0,.38,1.34,1.32,1.32,0,0,0,1.13.5,1.43,1.43,0,0,0,1.13-.48,1.58,1.58,0,0,0,.34-.64h.9a2.1,2.1,0,0,1-.24.67,2,2,0,0,1-.45.6,2,2,0,0,1-1,.55,2.85,2.85,0,0,1-.74.08,2.25,2.25,0,0,1-1.71-.74,2.86,2.86,0,0,1-.7-2.06,3.13,3.13,0,0,1,.7-2.13,2.32,2.32,0,0,1,1.85-.82A2.42,2.42,0,0,1,194,59.78Zm.33,2.14a2.3,2.3,0,0,0-.25-1,1.33,1.33,0,0,0-1.25-.66,1.41,1.41,0,0,0-1.05.45,1.72,1.72,0,0,0-.44,1.16Z"/><path class="cls-1" d="M201.79,59.63h1c-.13.35-.42,1.15-.86,2.39-.33.93-.61,1.7-.83,2.29A15.12,15.12,0,0,1,200,66.84a1.27,1.27,0,0,1-1.12.46h-.29l-.26-.06V66.4l.34.08h.19a.68.68,0,0,0,.37-.08,1,1,0,0,0,.21-.21l.18-.41.23-.56-2-5.6h1l1.46,4.43Z"/><path class="cls-1" d="M209.5,60.18a2.72,2.72,0,0,1,.72,2,3.61,3.61,0,0,1-.63,2.18,2.3,2.3,0,0,1-2,.85,2.21,2.21,0,0,1-1.77-.75,3,3,0,0,1-.66-2,3.24,3.24,0,0,1,.69-2.18,2.33,2.33,0,0,1,1.86-.82A2.43,2.43,0,0,1,209.5,60.18Zm-.56,3.61a3.5,3.5,0,0,0,.33-1.53A2.77,2.77,0,0,0,209,61a1.36,1.36,0,0,0-1.32-.75,1.3,1.3,0,0,0-1.2.64,3,3,0,0,0-.38,1.54,2.63,2.63,0,0,0,.38,1.45,1.33,1.33,0,0,0,1.19.58A1.26,1.26,0,0,0,208.94,63.79Z"/><path class="cls-1" d="M213.35,59.63h.87v.94a2.12,2.12,0,0,1,.52-.67,1.37,1.37,0,0,1,1-.39h.08l.21,0v1l-.15,0h-.15a1.29,1.29,0,0,0-1.06.44,1.55,1.55,0,0,0-.37,1v3.13h-.91Z"/><path class="cls-1" d="M219.3,63.36a1.35,1.35,0,0,0,.24.71,1.48,1.48,0,0,0,1.22.44,1.88,1.88,0,0,0,.91-.22.73.73,0,0,0,.4-.69.58.58,0,0,0-.32-.53,4.15,4.15,0,0,0-.79-.26l-.74-.18a3.79,3.79,0,0,1-1-.39,1.14,1.14,0,0,1-.6-1,1.57,1.57,0,0,1,.56-1.25,2.27,2.27,0,0,1,1.52-.48,2.1,2.1,0,0,1,1.79.72,1.55,1.55,0,0,1,.34,1h-.86a1,1,0,0,0-.23-.56,1.45,1.45,0,0,0-1.12-.36,1.37,1.37,0,0,0-.8.19.63.63,0,0,0,.09,1.09,2.05,2.05,0,0,0,.61.23l.61.14a5.27,5.27,0,0,1,1.35.46A1.26,1.26,0,0,1,223,63.5a1.64,1.64,0,0,1-.56,1.25,2.4,2.4,0,0,1-1.7.53,2.28,2.28,0,0,1-1.74-.55,2.05,2.05,0,0,1-.54-1.37Z"/><path class="cls-1" d="M231.63,60a2,2,0,0,1-.16-.72A1.6,1.6,0,0,1,232,58.1a1.77,1.77,0,0,1,1.3-.48,1.63,1.63,0,0,1,1.21.44,1.47,1.47,0,0,1,.44,1.06,1.88,1.88,0,0,1-.45,1.25,4.61,4.61,0,0,1-.88.73l1.35,1.62c.09-.27.15-.47.19-.6s.07-.32.11-.56h.86a5.39,5.39,0,0,1-.34,1.37c-.17.44-.26.62-.26.53l1.32,1.61h-1.17l-.7-.85a3.81,3.81,0,0,1-.76.66,2.63,2.63,0,0,1-1.38.36,2.1,2.1,0,0,1-1.69-.62,2.16,2.16,0,0,1-.53-1.42,2,2,0,0,1,.52-1.41,5.32,5.32,0,0,1,1.16-.87A4.18,4.18,0,0,1,231.63,60Zm2.2,4.17a1.94,1.94,0,0,0,.62-.58l-1.68-2.05a5.1,5.1,0,0,0-.93.73,1.36,1.36,0,0,0-.33.93,1.06,1.06,0,0,0,.43.91,1.56,1.56,0,0,0,.92.32A1.7,1.7,0,0,0,233.83,64.18ZM233.76,60a1.17,1.17,0,0,0,.29-.76.84.84,0,0,0-.21-.57.76.76,0,0,0-.59-.24.84.84,0,0,0-.78.38.88.88,0,0,0-.11.42,1.15,1.15,0,0,0,.17.59,5.52,5.52,0,0,0,.57.74A3.55,3.55,0,0,0,233.76,60Z"/><path class="cls-1" d="M245.29,57.61,247.44,64l2.11-6.35h1.14L248,65.07h-1.07l-2.71-7.46Z"/><path class="cls-1" d="M255.64,61.78a.51.51,0,0,0,.42-.26.87.87,0,0,0,.06-.36.75.75,0,0,0-.33-.68,1.78,1.78,0,0,0-.95-.21,1.19,1.19,0,0,0-1,.39,1.27,1.27,0,0,0-.22.64h-.85a1.58,1.58,0,0,1,.65-1.41,2.69,2.69,0,0,1,1.45-.39,2.91,2.91,0,0,1,1.56.37A1.24,1.24,0,0,1,257,61v3.14a.36.36,0,0,0,.06.22c0,.06.12.09.25.09h.13l.17,0v.68l-.33.07-.3,0a.74.74,0,0,1-.69-.34,1.33,1.33,0,0,1-.16-.5,2.18,2.18,0,0,1-.8.63,2.47,2.47,0,0,1-1.15.27,1.7,1.7,0,0,1-1.24-.46,1.65,1.65,0,0,1,0-2.32,2.37,2.37,0,0,1,1.24-.51Zm-1.92,2.47a1.07,1.07,0,0,0,.68.23,2.14,2.14,0,0,0,.94-.23A1.26,1.26,0,0,0,256.1,63v-.73a1.43,1.43,0,0,1-.43.17,3.46,3.46,0,0,1-.52.11l-.55.07a2,2,0,0,0-.75.21.8.8,0,0,0-.42.76A.73.73,0,0,0,253.72,64.25Z"/><path class="cls-1" d="M260.51,57.61h.92v7.46h-.92Z"/><path class="cls-1" d="M265.69,59.63v3.61a1.47,1.47,0,0,0,.13.68.87.87,0,0,0,.88.49,1.26,1.26,0,0,0,1.27-.85,3.58,3.58,0,0,0,.18-1.26V59.63h.91v5.44h-.86v-.8a1.84,1.84,0,0,1-.43.52,1.88,1.88,0,0,1-1.25.43,1.58,1.58,0,0,1-1.55-.78,2.35,2.35,0,0,1-.23-1.11v-3.7Z"/><path class="cls-1" d="M275.89,59.78a2,2,0,0,1,.82.71,2.27,2.27,0,0,1,.37,1,6.63,6.63,0,0,1,.08,1.19h-4a2.42,2.42,0,0,0,.39,1.34,1.3,1.3,0,0,0,1.12.5,1.44,1.44,0,0,0,1.47-1.12h.9a1.84,1.84,0,0,1-.23.67,2.47,2.47,0,0,1-.45.6,2,2,0,0,1-1,.55,2.75,2.75,0,0,1-.74.08,2.25,2.25,0,0,1-1.71-.74,2.9,2.9,0,0,1-.7-2.06,3.13,3.13,0,0,1,.71-2.13,2.32,2.32,0,0,1,1.85-.82A2.45,2.45,0,0,1,275.89,59.78Zm.33,2.14a2.29,2.29,0,0,0-.26-1,1.31,1.31,0,0,0-1.24-.66,1.38,1.38,0,0,0-1.05.45,1.77,1.77,0,0,0-.45,1.16Z"/><path class="cls-1" d="M280.32,59.63h.87v.94a2.12,2.12,0,0,1,.52-.67,1.37,1.37,0,0,1,1-.39h.09l.2,0v1l-.15,0h-.15a1.29,1.29,0,0,0-1.06.44,1.6,1.6,0,0,0-.37,1v3.13h-.91Z"/><path class="cls-1" d="M286.27,63.36a1.35,1.35,0,0,0,.24.71,1.48,1.48,0,0,0,1.22.44,1.88,1.88,0,0,0,.91-.22.73.73,0,0,0,.4-.69.58.58,0,0,0-.32-.53,4.15,4.15,0,0,0-.79-.26l-.74-.18a3.79,3.79,0,0,1-1-.39,1.14,1.14,0,0,1-.6-1,1.57,1.57,0,0,1,.56-1.25,2.27,2.27,0,0,1,1.52-.48,2.1,2.1,0,0,1,1.79.72,1.55,1.55,0,0,1,.34,1h-.86a1,1,0,0,0-.23-.56,1.45,1.45,0,0,0-1.12-.36,1.37,1.37,0,0,0-.8.19.63.63,0,0,0,.09,1.09,2.05,2.05,0,0,0,.61.23l.61.14a5.27,5.27,0,0,1,1.35.46,1.26,1.26,0,0,1,.53,1.11,1.64,1.64,0,0,1-.56,1.25,2.4,2.4,0,0,1-1.7.53,2.28,2.28,0,0,1-1.74-.55,2.05,2.05,0,0,1-.54-1.37Z"/></g></g></svg>